{
  "asset": {
    "version": "2.0",
    "generator": "@headless-three/renderer fixture"
  },
  "scene": 0,
  "scenes": [
    {
      "name": "SimpleTriangleScene",
      "nodes": [0, 1]
    }
  ],
  "nodes": [
    {
      "name": "BlueTriangle",
      "mesh": 0
    },
    {
      "name": "Camera",
      "camera": 0,
      "translation": [0, 0, 3]
    }
  ],
  "cameras": [
    {
      "name": "RenderCamera",
      "type": "perspective",
      "perspective": {
        "aspectRatio": 1,
        "yfov": 0.7853981633974483,
        "znear": 0.01,
        "zfar": 100
      }
    }
  ],
  "meshes": [
    {
      "name": "TriangleMesh",
      "primitives": [
        {
          "attributes": {
            "POSITION": 0,
            "NORMAL": 1,
            "TEXCOORD_0": 2
          },
          "indices": 3,
          "material": 0
        }
      ]
    }
  ],
  "materials": [
    {
      "name": "BluePbr",
      "doubleSided": true,
      "pbrMetallicRoughness": {
        "baseColorFactor": [0.2, 0.55, 1, 1],
        "metallicFactor": 0,
        "roughnessFactor": 0.7
      }
    }
  ],
  "buffers": [
    {
      "byteLength": 104,
      "uri": "data:application/octet-stream;base64,"
    }
  ],
  "bufferViews": [
    {
      "buffer": 0,
      "byteOffset": 0,
      "byteLength": 36,
      "target": 34962
    },
    {
      "buffer": 0,
      "byteOffset": 36,
      "byteLength": 36,
      "target": 34962
    },
    {
      "buffer": 0,
      "byteOffset": 72,
      "byteLength": 24,
      "target": 34962
    },
    {
      "buffer": 0,
      "byteOffset": 96,
      "byteLength": 6,
      "target": 34963
    }
  ],
  "accessors": [
    {
      "bufferView": 0,
      "componentType": 5126,
      "count": 3,
      "type": "VEC3",
      "min": [-0.7, -0.5, 0],
      "max": [0.7, 0.7, 0]
    },
    {
      "bufferView": 1,
      "componentType": 5126,
      "count": 3,
      "type": "VEC3",
      "min": [0, 0, 1],
      "max": [0, 0, 1]
    },
    {
      "bufferView": 2,
      "componentType": 5126,
      "count": 3,
      "type": "VEC2",
      "min": [0, 0],
      "max": [1, 1]
    },
    {
      "bufferView": 3,
      "componentType": 5123,
      "count": 3,
      "type": "SCALAR",
      "min": [0],
      "max": [2]
    }
  ]
}
